<mxfile host="app.diagrams.net" agent="Mozilla/5.0 (Windows NT 10.0; Win64; x64) AppleWebKit/537.36 (KHTML, like Gecko) Chrome/132.0.0.0 YaBrowser/25.2.0.0 Safari/537.36" version="26.1.0">
  <diagram name="Страница — 1" id="TIoRI9FGsxZcupuM0i1t">
    <mxGraphModel dx="1050" dy="567" grid="1" gridSize="10" guides="1" tooltips="1" connect="1" arrows="1" fold="1" page="1" pageScale="1" pageWidth="827" pageHeight="1169" math="0" shadow="0">
      <root>
        <mxCell id="0" />
        <mxCell id="1" parent="0" />
        <mxCell id="xe8ggOl1CgUxukBC6LOB-3" value="" style="edgeStyle=orthogonalEdgeStyle;rounded=0;orthogonalLoop=1;jettySize=auto;html=1;entryX=0;entryY=0;entryDx=140;entryDy=380;entryPerimeter=0;" parent="1" source="JUsQi0ur_77S4F9tlAjY-1" target="JUsQi0ur_77S4F9tlAjY-19" edge="1">
          <mxGeometry relative="1" as="geometry" />
        </mxCell>
        <mxCell id="JUsQi0ur_77S4F9tlAjY-1" value="Пользователь" style="shape=umlActor;verticalLabelPosition=bottom;verticalAlign=top;html=1;outlineConnect=0;movable=1;resizable=1;rotatable=1;deletable=1;editable=1;locked=0;connectable=1;" parent="1" vertex="1">
          <mxGeometry x="60" y="420" width="30" height="59" as="geometry" />
        </mxCell>
        <mxCell id="JUsQi0ur_77S4F9tlAjY-2" value="Подсистема поиска и рекомендаций" style="verticalAlign=top;align=left;spacingTop=8;spacingLeft=2;spacingRight=12;shape=cube;size=10;direction=south;fontStyle=4;html=1;whiteSpace=wrap;" parent="1" vertex="1">
          <mxGeometry x="190" y="150" width="380" height="270" as="geometry" />
        </mxCell>
        <mxCell id="JUsQi0ur_77S4F9tlAjY-3" value="Поиск курсов по категориям и ключевым словам" style="shape=module;align=left;spacingLeft=20;align=center;verticalAlign=top;whiteSpace=wrap;html=1;" parent="1" vertex="1">
          <mxGeometry x="200" y="200" width="150" height="60" as="geometry" />
        </mxCell>
        <mxCell id="JUsQi0ur_77S4F9tlAjY-4" value="Поиск менторов по специализациям" style="shape=module;align=left;spacingLeft=20;align=center;verticalAlign=top;whiteSpace=wrap;html=1;" parent="1" vertex="1">
          <mxGeometry x="360" y="200" width="150" height="50" as="geometry" />
        </mxCell>
        <mxCell id="JUsQi0ur_77S4F9tlAjY-5" value="Поиск стажировок по компаниям и регионам" style="shape=module;align=left;spacingLeft=20;align=center;verticalAlign=top;whiteSpace=wrap;html=1;" parent="1" vertex="1">
          <mxGeometry x="200" y="290" width="160" height="60" as="geometry" />
        </mxCell>
        <mxCell id="JUsQi0ur_77S4F9tlAjY-6" value="Рекомендации на основе пользовательских предпочтений" style="shape=module;align=left;spacingLeft=20;align=center;verticalAlign=top;whiteSpace=wrap;html=1;" parent="1" vertex="1">
          <mxGeometry x="370" y="290" width="160" height="70" as="geometry" />
        </mxCell>
        <mxCell id="xe8ggOl1CgUxukBC6LOB-6" style="edgeStyle=orthogonalEdgeStyle;rounded=0;orthogonalLoop=1;jettySize=auto;html=1;" parent="1" source="JUsQi0ur_77S4F9tlAjY-14" target="JUsQi0ur_77S4F9tlAjY-2" edge="1">
          <mxGeometry relative="1" as="geometry" />
        </mxCell>
        <mxCell id="xe8ggOl1CgUxukBC6LOB-11" style="edgeStyle=orthogonalEdgeStyle;rounded=0;orthogonalLoop=1;jettySize=auto;html=1;" parent="1" source="JUsQi0ur_77S4F9tlAjY-14" target="xe8ggOl1CgUxukBC6LOB-7" edge="1">
          <mxGeometry relative="1" as="geometry" />
        </mxCell>
        <mxCell id="JUsQi0ur_77S4F9tlAjY-14" value="Подсистема работы с записями" style="verticalAlign=top;align=left;spacingTop=8;spacingLeft=2;spacingRight=12;shape=cube;size=10;direction=south;fontStyle=4;html=1;whiteSpace=wrap;" parent="1" vertex="1">
          <mxGeometry x="630" y="150" width="380" height="270" as="geometry" />
        </mxCell>
        <mxCell id="JUsQi0ur_77S4F9tlAjY-15" value="Создание записи (например, добавление нового курса или ментора)" style="shape=module;align=left;spacingLeft=20;align=center;verticalAlign=top;whiteSpace=wrap;html=1;" parent="1" vertex="1">
          <mxGeometry x="655" y="200" width="155" height="70" as="geometry" />
        </mxCell>
        <mxCell id="JUsQi0ur_77S4F9tlAjY-16" value="Удаление записи" style="shape=module;align=left;spacingLeft=20;align=center;verticalAlign=top;whiteSpace=wrap;html=1;" parent="1" vertex="1">
          <mxGeometry x="815" y="200" width="150" height="50" as="geometry" />
        </mxCell>
        <mxCell id="JUsQi0ur_77S4F9tlAjY-17" value="Редактирование записи" style="shape=module;align=left;spacingLeft=20;align=center;verticalAlign=top;whiteSpace=wrap;html=1;" parent="1" vertex="1">
          <mxGeometry x="655" y="290" width="160" height="60" as="geometry" />
        </mxCell>
        <mxCell id="JUsQi0ur_77S4F9tlAjY-19" value="Подсистема работы с пользователем" style="verticalAlign=top;align=left;spacingTop=8;spacingLeft=2;spacingRight=12;shape=cube;size=10;direction=south;fontStyle=4;html=1;whiteSpace=wrap;" parent="1" vertex="1">
          <mxGeometry x="190" y="460" width="380" height="270" as="geometry" />
        </mxCell>
        <mxCell id="JUsQi0ur_77S4F9tlAjY-20" value="Использование Личного кабинета" style="shape=module;align=left;spacingLeft=20;align=center;verticalAlign=top;whiteSpace=wrap;html=1;" parent="1" vertex="1">
          <mxGeometry x="200" y="530" width="150" height="60" as="geometry" />
        </mxCell>
        <mxCell id="JUsQi0ur_77S4F9tlAjY-21" value="Авторизация пользователей" style="shape=module;align=left;spacingLeft=20;align=center;verticalAlign=top;whiteSpace=wrap;html=1;" parent="1" vertex="1">
          <mxGeometry x="360" y="530" width="150" height="50" as="geometry" />
        </mxCell>
        <mxCell id="JUsQi0ur_77S4F9tlAjY-22" value="Регистрация пользователей" style="shape=module;align=left;spacingLeft=20;align=center;verticalAlign=top;whiteSpace=wrap;html=1;" parent="1" vertex="1">
          <mxGeometry x="200" y="620" width="160" height="60" as="geometry" />
        </mxCell>
        <mxCell id="JUsQi0ur_77S4F9tlAjY-23" value="Аутентификация пользователей" style="shape=module;align=left;spacingLeft=20;align=center;verticalAlign=top;whiteSpace=wrap;html=1;" parent="1" vertex="1">
          <mxGeometry x="370" y="620" width="160" height="70" as="geometry" />
        </mxCell>
        <mxCell id="xe8ggOl1CgUxukBC6LOB-5" style="edgeStyle=orthogonalEdgeStyle;rounded=0;orthogonalLoop=1;jettySize=auto;html=1;" parent="1" source="xe8ggOl1CgUxukBC6LOB-1" target="JUsQi0ur_77S4F9tlAjY-14" edge="1">
          <mxGeometry relative="1" as="geometry" />
        </mxCell>
        <mxCell id="xe8ggOl1CgUxukBC6LOB-1" value="Администратор" style="shape=umlActor;verticalLabelPosition=bottom;verticalAlign=top;html=1;" parent="1" vertex="1">
          <mxGeometry x="1150" y="400" width="30" height="60" as="geometry" />
        </mxCell>
        <mxCell id="xe8ggOl1CgUxukBC6LOB-4" style="edgeStyle=orthogonalEdgeStyle;rounded=0;orthogonalLoop=1;jettySize=auto;html=1;entryX=0;entryY=0;entryDx=140;entryDy=380;entryPerimeter=0;" parent="1" source="JUsQi0ur_77S4F9tlAjY-1" target="JUsQi0ur_77S4F9tlAjY-2" edge="1">
          <mxGeometry relative="1" as="geometry" />
        </mxCell>
        <mxCell id="xe8ggOl1CgUxukBC6LOB-13" style="edgeStyle=orthogonalEdgeStyle;rounded=0;orthogonalLoop=1;jettySize=auto;html=1;" parent="1" source="xe8ggOl1CgUxukBC6LOB-7" target="JUsQi0ur_77S4F9tlAjY-19" edge="1">
          <mxGeometry relative="1" as="geometry" />
        </mxCell>
        <mxCell id="xe8ggOl1CgUxukBC6LOB-7" value="Подсистема работы с БД" style="verticalAlign=top;align=left;spacingTop=8;spacingLeft=2;spacingRight=12;shape=cube;size=10;direction=south;fontStyle=4;html=1;whiteSpace=wrap;" parent="1" vertex="1">
          <mxGeometry x="630" y="460" width="380" height="270" as="geometry" />
        </mxCell>
        <mxCell id="xe8ggOl1CgUxukBC6LOB-8" value="Запись данных в БД" style="shape=module;align=left;spacingLeft=20;align=center;verticalAlign=top;whiteSpace=wrap;html=1;" parent="1" vertex="1">
          <mxGeometry x="665" y="530" width="155" height="50" as="geometry" />
        </mxCell>
        <mxCell id="xe8ggOl1CgUxukBC6LOB-9" value="Выгрузка данных" style="shape=module;align=left;spacingLeft=20;align=center;verticalAlign=top;whiteSpace=wrap;html=1;" parent="1" vertex="1">
          <mxGeometry x="825" y="530" width="150" height="50" as="geometry" />
        </mxCell>
        <mxCell id="xe8ggOl1CgUxukBC6LOB-10" value="Графическое отображение данных (например, рейтинги курсов, менторов)" style="shape=module;align=left;spacingLeft=20;align=center;verticalAlign=top;whiteSpace=wrap;html=1;" parent="1" vertex="1">
          <mxGeometry x="665" y="620" width="155" height="70" as="geometry" />
        </mxCell>
        <mxCell id="xe8ggOl1CgUxukBC6LOB-12" style="edgeStyle=orthogonalEdgeStyle;rounded=0;orthogonalLoop=1;jettySize=auto;html=1;entryX=0;entryY=0;entryDx=130;entryDy=0;entryPerimeter=0;" parent="1" source="xe8ggOl1CgUxukBC6LOB-1" target="xe8ggOl1CgUxukBC6LOB-7" edge="1">
          <mxGeometry relative="1" as="geometry" />
        </mxCell>
        <mxCell id="xe8ggOl1CgUxukBC6LOB-14" style="edgeStyle=orthogonalEdgeStyle;rounded=0;orthogonalLoop=1;jettySize=auto;html=1;exitX=0;exitY=0;exitDx=10;exitDy=380;exitPerimeter=0;entryX=0;entryY=0;entryDx=265;entryDy=5;entryPerimeter=0;" parent="1" source="xe8ggOl1CgUxukBC6LOB-7" target="JUsQi0ur_77S4F9tlAjY-2" edge="1">
          <mxGeometry relative="1" as="geometry">
            <Array as="points">
              <mxPoint x="630" y="440" />
              <mxPoint x="565" y="440" />
            </Array>
          </mxGeometry>
        </mxCell>
      </root>
    </mxGraphModel>
  </diagram>
</mxfile>
